<svg version="1.1" id="Layer_1" xmlns="http://www.w3.org/2000/svg" xmlns:xlink="http://www.w3.org/1999/xlink" x="0px" y="0px"
	 width="100%" viewBox="0 0 314 291" enable-background="new 0 0 314 291" xml:space="preserve">
<path fill="transparent" opacity="1.000000" stroke="none" 
	d="
M216.000000,292.000000 
	C144.000015,292.000000 72.500023,292.000000 1.000029,292.000000 
	C1.000019,195.000031 1.000019,98.000061 1.000010,1.000068 
	C105.666618,1.000045 210.333237,1.000045 314.999878,1.000023 
	C314.999939,97.999931 314.999939,194.999863 314.999969,291.999878 
	C282.166656,292.000000 249.333328,292.000000 216.000000,292.000000 
M88.178322,98.568016 
	C88.363800,98.788750 88.594208,98.941925 89.503799,99.279510 
	C94.979980,103.556252 100.456169,107.832993 105.390755,112.642776 
	C103.852234,112.793068 102.313705,112.943367 100.238197,112.895088 
	C99.860649,113.596794 99.483109,114.298500 98.930893,115.923416 
	C98.920525,127.056953 98.947578,138.190704 98.882988,149.323944 
	C98.853500,154.407928 100.744217,158.370071 104.278053,162.144470 
	C109.961205,168.214462 117.043037,171.591766 124.646286,173.962509 
	C135.059677,177.209457 145.564636,179.093872 156.765411,178.547302 
	C165.974777,178.097931 175.178741,178.866821 184.189072,176.119263 
	C194.425064,172.997955 204.227859,169.219315 211.814560,159.814789 
	C211.953262,148.062500 212.097992,136.310211 212.142548,124.557564 
	C212.142975,124.443497 210.814133,124.324402 209.497147,124.347206 
	C208.452774,125.041023 207.408401,125.734840 205.711548,126.048279 
	C205.131454,125.010185 204.551361,123.972092 204.500275,122.520653 
	C215.334564,114.712051 226.171860,106.907600 237.001495,99.092560 
	C240.739639,96.394981 241.110260,93.523453 238.017654,89.806274 
	C225.375504,98.537468 212.710281,107.284599 199.352814,115.960609 
	C196.708389,114.424866 194.143005,112.199028 190.573608,115.199615 
	C190.304703,115.382309 190.117294,115.627319 189.572021,116.204651 
	C189.353287,116.467239 189.134537,116.729828 188.343338,117.039703 
	C187.896332,117.356987 187.449341,117.674278 186.496872,118.372002 
	C185.772522,119.225494 185.048157,120.078995 184.304321,120.955452 
	C185.294922,122.034981 186.165253,122.983452 187.028076,124.498581 
	C187.037903,124.687233 187.047729,124.875877 187.000000,125.009659 
	C187.000000,125.009659 187.057617,125.057953 186.318314,125.030823 
	C185.571014,125.748993 184.823715,126.467171 183.692123,127.723961 
	C177.371887,132.123337 171.051651,136.522705 164.029282,140.963470 
	C163.091721,140.947662 162.154175,140.931839 161.075577,140.931885 
	C161.075577,140.931885 161.080582,140.790054 160.994324,140.253647 
	C160.493240,139.536545 159.992142,138.819458 159.213776,137.404739 
	C159.266129,136.912857 159.318466,136.420975 159.707550,135.542358 
	C159.756958,135.205582 159.806351,134.868805 159.845703,133.845947 
	C161.108902,132.152008 162.050018,130.010010 163.685684,128.834259 
	C178.112000,118.464363 192.661774,108.266205 207.543030,97.797005 
	C207.770111,97.609940 207.931656,97.377350 207.993881,97.039604 
	C207.993881,97.039604 208.061432,97.028084 208.635559,96.973610 
	C209.092422,96.667358 209.549286,96.361115 210.396973,95.508568 
	C217.525101,90.418121 224.748764,85.452103 231.691956,80.120796 
	C232.920181,79.177719 233.897095,76.333298 233.363281,75.036537 
	C232.552582,73.067139 230.543030,71.338341 228.651886,70.108170 
	C217.431412,62.809319 205.980072,55.861427 194.835251,48.451283 
	C182.971237,40.562965 171.328720,32.339031 159.657410,24.164654 
	C155.165543,21.018621 150.839188,21.075533 146.282547,23.925604 
	C123.595985,38.115494 100.855568,52.219482 78.198837,66.456718 
	C70.079819,71.558624 69.101425,80.589706 75.919930,87.527473 
	C79.407478,91.076035 83.334221,94.192940 87.231293,97.744438 
	C87.370354,97.886703 87.532379,97.994431 87.892433,98.047020 
	C87.892433,98.047020 87.960228,98.209724 88.178322,98.568016 
M53.476994,259.371429 
	C40.082561,263.927185 29.656651,258.244568 27.333998,244.820099 
	C26.689463,241.094788 26.717508,237.156723 27.071064,233.375549 
	C27.767712,225.925110 30.398260,219.344498 37.774315,216.010559 
	C45.231361,212.640030 52.081478,214.652939 58.493713,219.020813 
	C59.759407,219.882965 60.947014,220.859772 62.170624,221.783707 
	C62.662956,221.485748 63.155289,221.187775 63.647625,220.889816 
	C62.708569,217.814117 62.744003,213.261414 60.675915,211.896973 
	C44.475399,201.208450 23.665863,209.779755 19.519308,228.593872 
	C18.671600,232.440170 18.627426,236.547958 18.772848,240.514664 
	C19.552324,261.776794 35.450874,272.725159 55.576340,266.002197 
	C63.288006,263.426056 63.795616,262.527374 62.164101,254.160187 
	C59.485523,255.816803 56.845200,257.449738 53.476994,259.371429 
M227.298065,250.676849 
	C227.213837,249.234894 227.129608,247.792923 227.016037,245.848709 
	C237.118561,245.848709 246.856705,245.848709 256.998291,245.848709 
	C256.998291,243.747528 257.037903,242.126144 256.991821,240.507202 
	C256.698090,230.186325 251.541199,223.540009 242.822083,222.213959 
	C232.949219,220.712433 224.010513,226.070251 220.864197,235.428543 
	C218.673492,241.944382 218.570908,248.493408 220.882370,255.001511 
	C223.178802,261.467255 227.690231,265.985565 234.434784,266.827026 
	C239.727417,267.487335 245.366364,267.204681 250.591797,266.105927 
	C257.103210,264.736786 257.407593,263.341583 255.372147,256.696960 
	C240.793549,264.288208 231.964661,262.634094 227.298065,250.676849 
M93.002571,266.762604 
	C103.207787,261.588409 107.518951,250.733551 104.518997,237.765961 
	C102.146843,227.512115 94.949074,221.729599 84.992195,222.078629 
	C75.227890,222.420898 68.174103,228.951767 66.792557,239.265335 
	C66.355209,242.530289 66.230492,245.928085 66.596565,249.194016 
	C68.221878,263.694244 78.042473,270.425110 93.002571,266.762604 
M111.972969,246.466858 
	C111.982498,248.296051 111.927666,250.128281 112.013458,251.953888 
	C112.287430,257.783356 113.270721,263.423157 119.091377,266.391449 
	C125.039398,269.424713 130.700043,268.134186 135.954483,264.358643 
	C136.590286,263.901825 137.300232,263.548187 138.474243,262.850525 
	C138.781113,269.625671 143.007233,266.216278 146.068558,266.636169 
	C146.068558,252.027863 146.068558,237.790604 146.068558,223.543152 
	C143.562714,223.543152 141.344070,223.543152 138.897385,223.543152 
	C138.897385,233.220688 138.966110,242.520981 138.833649,251.818405 
	C138.809967,253.481018 138.475708,255.730743 137.387207,256.679199 
	C133.652008,259.933960 129.199310,262.192200 124.122368,260.404877 
	C119.177521,258.664093 119.606087,253.923080 119.356728,249.842560 
	C119.144073,246.362640 119.286690,242.860657 119.283081,239.368423 
	C119.277626,234.080551 119.281662,228.792679 119.281662,223.417908 
	C116.690285,223.417908 114.598045,223.417908 111.972961,223.417908 
	C111.972961,230.934219 111.972961,238.205826 111.972969,246.466858 
M269.120514,246.486969 
	C273.286041,247.632233 277.639862,248.358765 281.533173,250.109406 
	C283.327698,250.916321 285.304626,253.777710 285.218231,255.614426 
	C285.132141,257.444580 282.890106,259.947815 281.005035,260.720276 
	C278.714539,261.658844 275.662140,261.672272 273.202271,261.048737 
	C269.306274,260.061157 265.628601,258.212219 260.645264,256.249969 
	C261.587738,259.607971 261.534760,263.751831 263.212891,264.645630 
	C270.347717,268.445862 278.140656,269.366211 285.790009,265.795135 
	C291.295471,263.224915 293.714966,258.347900 293.045471,252.274521 
	C292.420441,246.604523 288.625000,243.994370 283.628265,242.612717 
	C280.104156,241.638245 276.341003,241.215363 273.093842,239.680389 
	C271.389771,238.874847 269.554016,236.163330 269.630951,234.393082 
	C269.706970,232.645187 271.811493,230.155487 273.580170,229.510468 
	C276.080200,228.598755 279.185089,228.585190 281.855865,229.099457 
	C285.013123,229.707382 287.983368,231.286392 292.755920,233.097702 
	C291.337738,229.436081 291.030670,225.419434 289.219971,224.555954 
	C283.107758,221.641205 276.408539,220.979202 269.864746,223.795685 
	C265.031189,225.876053 262.142914,229.505539 261.879272,234.883026 
	C261.627594,240.016586 263.574921,243.957565 269.120514,246.486969 
M214.171448,259.295532 
	C216.773621,249.808884 213.745132,244.527039 204.356781,242.214661 
	C201.611969,241.538589 198.504059,241.488495 196.207809,240.091187 
	C194.139221,238.832382 191.794891,236.147400 191.748688,234.043655 
	C191.712234,232.383240 194.722992,230.048615 196.860550,229.126801 
	C198.808716,228.286682 201.506577,228.514618 203.687714,229.042099 
	C206.961746,229.833923 210.073059,231.298584 214.867126,233.075043 
	C213.445236,229.394073 213.150497,225.468246 211.381302,224.620911 
	C205.096497,221.610779 198.255569,220.972565 191.560287,223.902679 
	C186.451767,226.138382 183.636078,230.740784 183.844589,236.201508 
	C184.050385,241.590744 186.806808,245.098038 192.584335,247.019867 
	C194.946060,247.805481 197.397278,248.346237 199.834534,248.875153 
	C203.904175,249.758331 207.932938,250.676682 207.457581,256.185913 
	C207.148651,259.766296 203.644119,262.053802 198.098221,261.406342 
	C194.396927,260.974213 190.824371,259.332458 187.234818,258.112579 
	C186.095383,257.725342 185.086838,256.952972 182.759933,255.654694 
	C183.571243,259.492218 183.255157,263.504639 184.822556,264.475159 
	C192.351303,269.136902 208.505203,270.342102 214.171448,259.295532 
M164.788391,224.798538 
	C162.454681,224.104187 160.120987,223.409836 157.539612,222.641785 
	C157.539612,238.171280 157.539612,252.409286 157.539612,266.676819 
	C160.021729,266.676819 162.136719,266.676819 164.812180,266.676819 
	C164.812180,257.674622 165.077118,248.877670 164.695984,240.108795 
	C164.516129,235.970734 166.367523,233.669800 169.675003,232.543640 
	C173.043411,231.396713 176.682816,231.045624 180.976135,230.192566 
	C180.551178,228.089996 180.781189,224.566696 179.455002,223.824646 
	C177.725525,222.856964 174.615799,223.684479 172.369598,224.490707 
	C169.854080,225.393646 167.639969,227.136215 164.992645,228.690796 
	C164.909485,227.304123 164.860138,226.481079 164.788391,224.798538 
z"/>
<path fill="#AC43D9" opacity="1.000000" stroke="none" 
	d="
M159.370819,135.929092 
	C159.318466,136.420975 159.266129,136.912857 159.278351,138.037628 
	C159.922134,139.377014 160.501358,140.083542 161.080582,140.790054 
	C161.080582,140.790054 161.075577,140.931885 161.212036,141.244843 
	C163.072144,144.517532 163.876740,142.586517 164.731415,140.922073 
	C171.051651,136.522705 177.371887,132.123337 184.190613,127.377792 
	C185.478592,126.373741 186.268112,125.715843 187.057617,125.057953 
	C187.057617,125.057953 187.000000,125.009659 187.249207,125.015724 
	C187.498398,125.021790 187.914276,124.868332 188.221619,125.033333 
	C189.723389,127.249115 190.917786,129.299911 191.815887,131.489151 
	C183.823486,137.046051 176.026932,142.328918 168.466248,147.930145 
	C163.349884,151.720520 159.063431,150.878571 154.201126,147.264526 
	C138.226837,135.391144 122.038467,123.805763 105.932350,112.109726 
	C100.456169,107.832993 94.979980,103.556252 89.110344,98.941658 
	C88.552635,98.303528 88.300415,98.172165 87.960228,98.209724 
	C87.960228,98.209724 87.892433,98.047020 87.759018,97.903740 
	C87.483154,97.575554 87.295448,97.490379 87.062462,97.504944 
	C83.334221,94.192940 79.407478,91.076035 75.919930,87.527473 
	C69.101425,80.589706 70.079819,71.558624 78.198837,66.456718 
	C100.855568,52.219482 123.595985,38.115494 146.282547,23.925604 
	C150.839188,21.075533 155.165543,21.018621 159.657410,24.164654 
	C171.328720,32.339031 182.971237,40.562965 194.835251,48.451283 
	C205.980072,55.861427 217.431412,62.809319 228.651886,70.108170 
	C230.543030,71.338341 232.552582,73.067139 233.363281,75.036537 
	C233.897095,76.333298 232.920181,79.177719 231.691956,80.120796 
	C224.748764,85.452103 217.525101,90.418121 209.886932,95.778839 
	C208.938416,96.375443 208.499924,96.701767 208.061432,97.028091 
	C208.061432,97.028084 207.993881,97.039604 207.819733,97.171310 
	C207.413345,97.491432 207.256485,97.729507 207.175018,98.017250 
	C192.661774,108.266205 178.112000,118.464363 163.685684,128.834259 
	C162.050018,130.010010 161.108902,132.152008 159.656555,134.374283 
	C159.435226,135.244781 159.403030,135.586929 159.370819,135.929092 
z"/>
<path fill="#AC43D9" opacity="1.000000" stroke="none" 
	d="
M211.086685,160.368317 
	C204.227859,169.219315 194.425064,172.997955 184.189072,176.119263 
	C175.178741,178.866821 165.974777,178.097931 156.765411,178.547302 
	C145.564636,179.093872 135.059677,177.209457 124.646286,173.962509 
	C117.043037,171.591766 109.961205,168.214462 104.278053,162.144470 
	C100.744217,158.370071 98.853500,154.407928 98.882988,149.323944 
	C98.947578,138.190704 98.920525,127.056953 99.352570,115.459534 
	C100.219986,114.984894 100.665718,114.974121 101.447937,115.074211 
	C103.248474,116.134125 104.783897,116.990257 106.163277,118.049576 
	C110.382767,121.289970 114.454834,124.727608 118.742065,127.873451 
	C130.031174,136.157059 141.490662,144.210571 152.707672,152.589462 
	C158.672821,157.045334 162.937057,157.350723 169.370499,152.844894 
	C177.210602,147.353867 185.043427,141.852402 193.178864,136.648041 
	C194.722717,141.138916 195.967087,145.337219 197.292465,149.808823 
	C200.148972,146.296661 200.127609,139.349304 207.956314,142.609177 
	C207.723633,139.718475 207.592636,137.653809 207.383606,135.597092 
	C207.072708,132.538010 206.706619,129.484528 206.364029,126.428650 
	C207.408401,125.734840 208.452774,125.041023 209.977371,124.641251 
	C210.642700,126.711380 210.975204,128.486359 210.988495,130.263733 
	C211.063599,140.298279 211.062103,150.333389 211.086685,160.368317 
z"/>
<path fill="#101010" opacity="1.000000" stroke="none" 
	d="
M53.840935,259.227051 
	C56.845200,257.449738 59.485523,255.816803 62.164101,254.160187 
	C63.795616,262.527374 63.288006,263.426056 55.576340,266.002197 
	C35.450874,272.725159 19.552324,261.776794 18.772848,240.514664 
	C18.627426,236.547958 18.671600,232.440170 19.519308,228.593872 
	C23.665863,209.779755 44.475399,201.208450 60.675915,211.896973 
	C62.744003,213.261414 62.708569,217.814117 63.647625,220.889816 
	C63.155289,221.187775 62.662956,221.485748 62.170624,221.783707 
	C60.947014,220.859772 59.759407,219.882965 58.493713,219.020813 
	C52.081478,214.652939 45.231361,212.640030 37.774315,216.010559 
	C30.398260,219.344498 27.767712,225.925110 27.071064,233.375549 
	C26.717508,237.156723 26.689463,241.094788 27.333998,244.820099 
	C29.656651,258.244568 40.082561,263.927185 53.840935,259.227051 
z"/>
<path fill="#121212" opacity="1.000000" stroke="none" 
	d="
M227.388535,251.073990 
	C231.964661,262.634094 240.793549,264.288208 255.372147,256.696960 
	C257.407593,263.341583 257.103210,264.736786 250.591797,266.105927 
	C245.366364,267.204681 239.727417,267.487335 234.434784,266.827026 
	C227.690231,265.985565 223.178802,261.467255 220.882370,255.001511 
	C218.570908,248.493408 218.673492,241.944382 220.864197,235.428543 
	C224.010513,226.070251 232.949219,220.712433 242.822083,222.213959 
	C251.541199,223.540009 256.698090,230.186325 256.991821,240.507202 
	C257.037903,242.126144 256.998291,243.747528 256.998291,245.848709 
	C246.856705,245.848709 237.118561,245.848709 227.016037,245.848709 
	C227.129608,247.792923 227.213837,249.234894 227.388535,251.073990 
M235.456192,228.608353 
	C230.180222,230.423141 227.453156,234.102539 227.005280,239.747772 
	C234.735321,239.747772 242.121506,239.747772 249.520920,239.747772 
	C248.941574,230.511215 245.556564,227.699860 235.456192,228.608353 
z"/>
<path fill="#0F0F0F" opacity="1.000000" stroke="none" 
	d="
M92.617340,266.876404 
	C78.042473,270.425110 68.221878,263.694244 66.596565,249.194016 
	C66.230492,245.928085 66.355209,242.530289 66.792557,239.265335 
	C68.174103,228.951767 75.227890,222.420898 84.992195,222.078629 
	C94.949074,221.729599 102.146843,227.512115 104.518997,237.765961 
	C107.518951,250.733551 103.207787,261.588409 92.617340,266.876404 
M78.651260,230.892807 
	C72.551537,237.194702 73.332687,244.835541 74.821701,252.395721 
	C76.030731,258.534302 80.354675,261.760559 86.041725,261.615692 
	C91.656403,261.472626 95.843987,257.949371 96.807922,251.820419 
	C97.393524,248.097031 97.486298,244.203690 97.148750,240.445236 
	C96.208359,229.974396 88.803123,225.905792 78.651260,230.892807 
z"/>
<path fill="#0B0B0B" opacity="1.000000" stroke="none" 
	d="
M111.972961,245.972137 
	C111.972961,238.205826 111.972961,230.934219 111.972961,223.417908 
	C114.598045,223.417908 116.690285,223.417908 119.281662,223.417908 
	C119.281662,228.792679 119.277626,234.080551 119.283081,239.368423 
	C119.286690,242.860657 119.144073,246.362640 119.356728,249.842560 
	C119.606087,253.923080 119.177521,258.664093 124.122368,260.404877 
	C129.199310,262.192200 133.652008,259.933960 137.387207,256.679199 
	C138.475708,255.730743 138.809967,253.481018 138.833649,251.818405 
	C138.966110,242.520981 138.897385,233.220688 138.897385,223.543152 
	C141.344070,223.543152 143.562714,223.543152 146.068558,223.543152 
	C146.068558,237.790604 146.068558,252.027863 146.068558,266.636169 
	C143.007233,266.216278 138.781113,269.625671 138.474243,262.850525 
	C137.300232,263.548187 136.590286,263.901825 135.954483,264.358643 
	C130.700043,268.134186 125.039398,269.424713 119.091377,266.391449 
	C113.270721,263.423157 112.287430,257.783356 112.013458,251.953888 
	C111.927666,250.128281 111.982498,248.296051 111.972961,245.972137 
z"/>
<path fill="#111111" opacity="1.000000" stroke="none" 
	d="
M268.783813,246.317490 
	C263.574921,243.957565 261.627594,240.016586 261.879272,234.883026 
	C262.142914,229.505539 265.031189,225.876053 269.864746,223.795685 
	C276.408539,220.979202 283.107758,221.641205 289.219971,224.555954 
	C291.030670,225.419434 291.337738,229.436081 292.755920,233.097702 
	C287.983368,231.286392 285.013123,229.707382 281.855865,229.099457 
	C279.185089,228.585190 276.080200,228.598755 273.580170,229.510468 
	C271.811493,230.155487 269.706970,232.645187 269.630951,234.393082 
	C269.554016,236.163330 271.389771,238.874847 273.093842,239.680389 
	C276.341003,241.215363 280.104156,241.638245 283.628265,242.612717 
	C288.625000,243.994370 292.420441,246.604523 293.045471,252.274521 
	C293.714966,258.347900 291.295471,263.224915 285.790009,265.795135 
	C278.140656,269.366211 270.347717,268.445862 263.212891,264.645630 
	C261.534760,263.751831 261.587738,259.607971 260.645264,256.249969 
	C265.628601,258.212219 269.306274,260.061157 273.202271,261.048737 
	C275.662140,261.672272 278.714539,261.658844 281.005035,260.720276 
	C282.890106,259.947815 285.132141,257.444580 285.218231,255.614426 
	C285.304626,253.777710 283.327698,250.916321 281.533173,250.109406 
	C277.639862,248.358765 273.286041,247.632233 268.783813,246.317490 
z"/>
<path fill="#111111" opacity="1.000000" stroke="none" 
	d="
M214.008850,259.652954 
	C208.505203,270.342102 192.351303,269.136902 184.822556,264.475159 
	C183.255157,263.504639 183.571243,259.492218 182.759933,255.654694 
	C185.086838,256.952972 186.095383,257.725342 187.234818,258.112579 
	C190.824371,259.332458 194.396927,260.974213 198.098221,261.406342 
	C203.644119,262.053802 207.148651,259.766296 207.457581,256.185913 
	C207.932938,250.676682 203.904175,249.758331 199.834534,248.875153 
	C197.397278,248.346237 194.946060,247.805481 192.584335,247.019867 
	C186.806808,245.098038 184.050385,241.590744 183.844589,236.201508 
	C183.636078,230.740784 186.451767,226.138382 191.560287,223.902679 
	C198.255569,220.972565 205.096497,221.610779 211.381302,224.620911 
	C213.150497,225.468246 213.445236,229.394073 214.867126,233.075043 
	C210.073059,231.298584 206.961746,229.833923 203.687714,229.042099 
	C201.506577,228.514618 198.808716,228.286682 196.860550,229.126801 
	C194.722992,230.048615 191.712234,232.383240 191.748688,234.043655 
	C191.794891,236.147400 194.139221,238.832382 196.207809,240.091187 
	C198.504059,241.488495 201.611969,241.538589 204.356781,242.214661 
	C213.745132,244.527039 216.773621,249.808884 214.008850,259.652954 
z"/>
<path fill="#F5EFF8" opacity="1.000000" stroke="none" 
	d="
M192.879395,136.355469 
	C185.043427,141.852402 177.210602,147.353867 169.370499,152.844894 
	C162.937057,157.350723 158.672821,157.045334 152.707672,152.589462 
	C141.490662,144.210571 130.031174,136.157059 118.742065,127.873451 
	C114.454834,124.727608 110.382767,121.289970 106.163277,118.049576 
	C104.783897,116.990257 103.248474,116.134125 101.398132,114.761490 
	C100.932968,113.923164 100.854080,113.508408 100.775185,113.093658 
	C102.313705,112.943367 103.852234,112.793068 105.661552,112.376251 
	C122.038467,123.805763 138.226837,135.391144 154.201126,147.264526 
	C159.063431,150.878571 163.349884,151.720520 168.466248,147.930145 
	C176.026932,142.328918 183.823486,137.046051 191.960541,131.736847 
	C192.560806,133.349197 192.720108,134.852341 192.879395,136.355469 
z"/>
<path fill="#161616" opacity="1.000000" stroke="none" 
	d="
M164.799591,225.228271 
	C164.860138,226.481079 164.909485,227.304123 164.992645,228.690796 
	C167.639969,227.136215 169.854080,225.393646 172.369598,224.490707 
	C174.615799,223.684479 177.725525,222.856964 179.455002,223.824646 
	C180.781189,224.566696 180.551178,228.089996 180.976135,230.192566 
	C176.682816,231.045624 173.043411,231.396713 169.675003,232.543640 
	C166.367523,233.669800 164.516129,235.970734 164.695984,240.108795 
	C165.077118,248.877670 164.812180,257.674622 164.812180,266.676819 
	C162.136719,266.676819 160.021729,266.676819 157.539612,266.676819 
	C157.539612,252.409286 157.539612,238.171280 157.539612,222.641785 
	C160.120987,223.409836 162.454681,224.104187 164.799591,225.228271 
z"/>
<path fill="#EBC0F5" opacity="1.000000" stroke="none" 
	d="
M193.178864,136.648041 
	C192.720108,134.852341 192.560806,133.349197 192.256836,131.598389 
	C190.917786,129.299911 189.723389,127.249115 188.131332,124.830383 
	C187.561417,124.206093 187.328720,124.029251 187.035599,123.931915 
	C186.165253,122.983452 185.294922,122.034981 184.304321,120.955452 
	C185.048157,120.078995 185.772522,119.225494 187.039673,118.162750 
	C188.026932,117.633141 188.471375,117.312782 188.915802,116.992432 
	C189.134537,116.729828 189.353287,116.467239 190.010864,115.981010 
	C190.723923,115.572441 190.907822,115.321335 191.001389,115.004044 
	C194.143005,112.199028 196.708389,114.424866 199.678101,116.346268 
	C201.326035,118.799278 202.648651,120.866638 203.971268,122.934006 
	C204.551361,123.972092 205.131454,125.010185 206.037781,126.238464 
	C206.706619,129.484528 207.072708,132.538010 207.383606,135.597092 
	C207.592636,137.653809 207.723633,139.718475 207.956314,142.609177 
	C200.127609,139.349304 200.148972,146.296661 197.292465,149.808823 
	C195.967087,145.337219 194.722717,141.138916 193.178864,136.648041 
z"/>
<path fill="#AC43D9" opacity="1.000000" stroke="none" 
	d="
M204.235779,122.727325 
	C202.648651,120.866638 201.326035,118.799278 200.024231,116.381821 
	C212.710281,107.284599 225.375504,98.537468 238.017654,89.806274 
	C241.110260,93.523453 240.739639,96.394981 237.001495,99.092560 
	C226.171860,106.907600 215.334564,114.712051 204.235779,122.727325 
z"/>
<path fill="#5C347A" opacity="1.000000" stroke="none" 
	d="
M211.450623,160.091553 
	C211.062103,150.333389 211.063599,140.298279 210.988495,130.263733 
	C210.975204,128.486359 210.642700,126.711380 210.281738,124.571472 
	C210.814133,124.324402 212.142975,124.443497 212.142548,124.557564 
	C212.097992,136.310211 211.953262,148.062500 211.450623,160.091553 
z"/>
<path fill="#FAF8FB" opacity="1.000000" stroke="none" 
	d="
M164.380341,140.942780 
	C163.876740,142.586517 163.072144,144.517532 161.282547,141.236908 
	C162.154175,140.931839 163.091721,140.947662 164.380341,140.942780 
z"/>
<path fill="#FAF8FB" opacity="1.000000" stroke="none" 
	d="
M186.687958,125.044388 
	C186.268112,125.715843 185.478592,126.373741 184.382751,127.108490 
	C184.823715,126.467171 185.571014,125.748993 186.687958,125.044388 
z"/>
<path fill="#7945A8" opacity="1.000000" stroke="none" 
	d="
M100.506691,112.994370 
	C100.854080,113.508408 100.932968,113.923164 101.061653,114.650635 
	C100.665718,114.974121 100.219986,114.984894 99.439911,114.997932 
	C99.483109,114.298500 99.860649,113.596794 100.506691,112.994370 
z"/>
<path fill="#FAF8FB" opacity="1.000000" stroke="none" 
	d="
M161.037445,140.521851 
	C160.501358,140.083542 159.922134,139.377014 159.416977,138.386444 
	C159.992142,138.819458 160.493240,139.536545 161.037445,140.521851 
z"/>
<path fill="#FAF8FB" opacity="1.000000" stroke="none" 
	d="
M188.629578,117.016068 
	C188.471375,117.312782 188.026932,117.633141 187.292419,117.972527 
	C187.449341,117.674278 187.896332,117.356987 188.629578,117.016068 
z"/>
<path fill="#FAF8FB" opacity="1.000000" stroke="none" 
	d="
M208.348495,97.000854 
	C208.499924,96.701767 208.938416,96.375443 209.691528,96.051994 
	C209.549286,96.361115 209.092422,96.667358 208.348495,97.000854 
z"/>
<path fill="#FAF8FB" opacity="1.000000" stroke="none" 
	d="
M207.359024,97.907127 
	C207.256485,97.729507 207.413345,97.491432 207.836624,97.201118 
	C207.931656,97.377350 207.770111,97.609940 207.359024,97.907127 
z"/>
<path fill="#FAF8FB" opacity="1.000000" stroke="none" 
	d="
M159.539185,135.735718 
	C159.403030,135.586929 159.435226,135.244781 159.661591,134.717316 
	C159.806351,134.868805 159.756958,135.205582 159.539185,135.735718 
z"/>
<path fill="#F5EFF8" opacity="1.000000" stroke="none" 
	d="
M87.146881,97.624695 
	C87.295448,97.490379 87.483154,97.575554 87.671486,97.914040 
	C87.532379,97.994431 87.370354,97.886703 87.146881,97.624695 
z"/>
<path fill="#F5EFF8" opacity="1.000000" stroke="none" 
	d="
M88.069275,98.388870 
	C88.300415,98.172165 88.552635,98.303528 88.793213,98.815674 
	C88.594208,98.941925 88.363800,98.788750 88.069275,98.388870 
z"/>
<path fill="#FAF8FB" opacity="1.000000" stroke="none" 
	d="
M187.031830,124.215248 
	C187.328720,124.029251 187.561417,124.206093 187.823975,124.665390 
	C187.914276,124.868332 187.498398,125.021790 187.277985,125.043159 
	C187.047729,124.875877 187.037903,124.687233 187.031830,124.215248 
z"/>
<path fill="#FAF8FB" opacity="1.000000" stroke="none" 
	d="
M190.787506,115.101830 
	C190.907822,115.321335 190.723923,115.572441 190.230530,115.846008 
	C190.117294,115.627319 190.304703,115.382309 190.787506,115.101830 
z"/>
<path fill="transparent" opacity="1.000000" stroke="none" 
	d="
M235.838013,228.492126 
	C245.556564,227.699860 248.941574,230.511215 249.520920,239.747772 
	C242.121506,239.747772 234.735321,239.747772 227.005280,239.747772 
	C227.453156,234.102539 230.180222,230.423141 235.838013,228.492126 
z"/>
<path fill="transparent" opacity="1.000000" stroke="none" 
	d="
M78.939491,230.616852 
	C88.803123,225.905792 96.208359,229.974396 97.148750,240.445236 
	C97.486298,244.203690 97.393524,248.097031 96.807922,251.820419 
	C95.843987,257.949371 91.656403,261.472626 86.041725,261.615692 
	C80.354675,261.760559 76.030731,258.534302 74.821701,252.395721 
	C73.332687,244.835541 72.551537,237.194702 78.939491,230.616852 
z"/>
</svg>